# xmcd CD database file
#
# Track frame offsets:
#	150
#	5930
#	24850
#	49970
#	74270
#	102502
#	126725
#	152535
#	173407
#	194440
#
# Disc length: 2758 seconds
#
# Revision: 3
# Processed by: cddbd v1.5.1PL0 Copyright (c) Steve Scherf et al.
# Submitted via: CDex 1.51
#
DISCID=870ac40a
DTITLE=観月ありさ - ARISA III -LOOK-
DYEAR=1994
DGENRE=Pop
TTITLE0=遠い記憶(INSTRUMENTAL)
TTITLE1=パリの恋人／トーキョーの恋人
TTITLE2=IN THE RAIN
TTITLE3=優しい夜に逢いましょう
TTITLE4=CRY FOR YOU
TTITLE5=Next Generation
TTITLE6=Friend and Lover
TTITLE7=Happy wake up!
TTITLE8=さよならの贈りもの
TTITLE9=甘い記憶
EXTD=YEAR: 1994
EXTT0=
EXTT1=
EXTT2=
EXTT3=
EXTT4=
EXTT5=
EXTT6=
EXTT7=
EXTT8=
EXTT9=
PLAYORDER=
